<?xml version="1.0" encoding="utf-8"?>
<!-- Generator: Adobe Illustrator 25.4.1, SVG Export Plug-In . SVG Version: 6.00 Build 0)  -->
<svg version="1.1" id="圖層_1" xmlns="http://www.w3.org/2000/svg" xmlns:xlink="http://www.w3.org/1999/xlink" x="0px" y="0px"
	 viewBox="0 0 396.5 395.3" style="enable-background:new 0 0 396.5 395.3;" xml:space="preserve">
<style type="text/css">
	.st0{fill:#00416C;}
	.st1{fill-rule:evenodd;clip-rule:evenodd;fill:#00416C;}
</style>
<g id="Group_280" transform="translate(-927 -1661)">
	<g id="Group_279" transform="translate(927 1661)">
		<g id="Group_274" transform="translate(0 0)">
			<path id="Path_867" class="st0" d="M218.6,21.5v-9.7c-4.4-0.5-9.3-0.8-14.8-0.9h-0.4V0h-10.8v10.9h-0.4
				c-5.5,0.2-10.4,0.5-14.8,0.9v9.7c4.4-0.5,9.3-0.8,14.8-0.9h0.4v31.2h10.8V20.6h0.4C209.4,20.8,214.3,21.1,218.6,21.5z"/>
			<g id="Group_273" transform="translate(0 22.408)">
				<path id="Path_868" class="st1" d="M98.6,21.6c0.3,0.1,0.7,0.1,1,0.1c9.8-1.5,25.1-11.7,31.3-19.6c0.1-0.2,0.2-0.3,0.3-0.5
					c0.2-0.7-0.2-1.4-0.9-1.6l0,0c-13.4,0-29.4,8.4-33.9,16.9c-0.1,0.2-0.2,0.4-0.3,0.6C95.6,19.4,96.7,21.2,98.6,21.6z"/>
				<path id="Path_869" class="st1" d="M37.9,80.2c0.4,0,0.8-0.1,1.2-0.2h0.1c0.4-0.2,0.8-0.4,1.1-0.7c9.1-12,12.1-26.4,13-40.7
					c0-0.7-0.6-1.3-1.3-1.3c-0.1,0-0.1,0-0.2,0c-0.3,0-0.5,0.2-0.7,0.4c-1.8,1.8-3.7,3.9-5.2,5.7C38.7,52,34,61.5,34,72.9
					c0,1.6,0.2,3.2,0.6,4.8C35,79.2,36.4,80.2,37.9,80.2z"/>
				<path id="Path_870" class="st1" d="M12.4,171.7c0.6,0.4,1.2,0.6,1.9,0.6c0.4,0,0.8-0.1,1.2-0.2h0.1c1.2-0.5,2-1.6,2.2-2.8
					c1.5-12.9-5.1-38.9-12.4-46.1c-0.3-0.2-0.6-0.4-0.9-0.4c-0.1,0-0.2,0-0.2,0c-0.5,0.1-0.9,0.4-1,0.8c-3.2,13.6-3.2,26.9,2.7,39.9
					C7.5,166.7,9.7,169.5,12.4,171.7z"/>
				<path id="Path_871" class="st1" d="M78.6,62.6c0.1-0.1,0.1-0.3,0.1-0.4v-0.1c0-0.7-0.5-1.3-1.1-1.4C63.4,60.5,47.8,71.8,44,82.1
					c-0.1,0.3-0.2,0.7-0.2,1s0,0.6,0.1,0.9c0.4,1.6,1.8,2.7,3.5,2.7c0.3,0,0.5,0,0.8-0.1C58.4,83.9,73.6,72.2,78.6,62.6z"/>
				<path id="Path_872" class="st1" d="M63.6,41.8c0.4,0.1,0.7,0.2,1.1,0.2h0.1c0.4,0,0.8-0.1,1.2-0.3c11.7-8.2,18.5-20.3,23.5-32.9
					c0.2-0.6-0.2-1.3-0.8-1.5c-0.1,0-0.1,0-0.2-0.1c-0.3,0-0.5,0-0.8,0.1c-2.1,1.1-4.5,2.4-6.3,3.6c-8.8,5.7-15.9,13-19.2,23.3
					c-0.5,1.4-0.8,2.9-0.8,4.5C61.3,40.1,62.2,41.4,63.6,41.8z"/>
				<path id="Path_873" class="st1" d="M104.7,30.9c0.1-0.1,0.1-0.3,0.2-0.4v-0.1c0.1-0.6-0.3-1.2-0.9-1.4
					c-13.4-1.5-29,7.9-33.5,17.3c-0.1,0.3-0.2,0.6-0.2,0.9c0,0.3,0,0.6,0,0.9c0.3,1.5,1.5,2.7,3,2.8c0.2,0,0.5,0,0.7-0.1
					C83.8,49.3,99.1,39.6,104.7,30.9z"/>
				<path id="Path_874" class="st1" d="M31.2,129.8c0.4,0,0.7-0.1,1.1-0.2c10.2-4.8,21.3-20.4,25.4-31.5c0-0.1,0-0.2,0.1-0.3v-0.1
					c0-0.1,0-0.2,0-0.3c-0.2-0.5-0.7-0.9-1.2-0.9c-11.5,0.3-27.1,16.8-29,29.6c0,0.1,0,0.2,0,0.4c0,0.3,0.1,0.6,0.2,0.9
					s0.2,0.5,0.4,0.8C28.6,129.1,29.8,129.8,31.2,129.8z"/>
				<path id="Path_875" class="st1" d="M16.8,122.7c0.7,1,1.9,1.5,3.1,1.5c0.4,0,0.8-0.1,1.2-0.3h0.1c0.6-0.3,1.1-0.7,1.5-1.3
					c0.1-0.1,0.1-0.2,0.2-0.3c5.1-10.8,6.5-32.4,2.4-44.5c-0.2-0.6-0.8-1-1.4-1c-0.1,0-0.2,0-0.2,0c-0.3,0.1-0.6,0.2-0.8,0.4
					c-0.1,0.1-0.1,0.1-0.1,0.2c-1.3,2.3-2.6,4.4-3.6,6.5c-4.9,10.2-7.4,20.9-4.9,32.2C14.8,118.4,15.6,120.6,16.8,122.7z"/>
				<path id="Path_876" class="st1" d="M23.4,170.9c0.2,0.7,0.6,1.2,1.1,1.7c0.6,0.5,1.4,0.8,2.3,0.8c0.4,0,0.8-0.1,1.2-0.2h0.1
					c0.3-0.1,0.7-0.3,0.9-0.6c9.2-7.5,16.4-27.2,17.3-37.6c0-0.4-0.1-0.7-0.4-0.9c-0.3-0.3-0.6-0.4-1-0.4l0,0
					C32.2,137.5,21,157.6,23.4,170.9z"/>
				<path id="Path_877" class="st1" d="M14.9,216.6c1.2,1.2,2.5,2.2,4,3c0.5,0.2,1.1,0.4,1.7,0.4c0.5,0,0.9-0.1,1.4-0.2
					c0.6-0.2,1.2-0.6,1.7-1.1c0.2-0.2,0.4-0.5,0.5-0.8c0.2-0.3,0.3-0.6,0.4-0.9c0.1-0.3,0.1-0.7,0.1-1.1
					c-1.4-13.9-13.2-34.4-21.9-42.7c-0.2-0.2-0.5-0.4-0.9-0.4c-0.1,0-0.2,0-0.3,0s-0.2,0-0.3,0.1c-0.5,0.1-0.8,0.4-1.1,0.8
					c-0.1,0.1-0.1,0.2-0.2,0.4c-0.6,11.2,1.8,22.3,6.9,32.3C9.1,210.1,11.8,213.6,14.9,216.6z"/>
				<path id="Path_878" class="st1" d="M106.1,328c0.6-0.2,1.1-0.6,1.5-1.1c0.8-0.9,1.2-2,1.2-3.1c0-1.2-0.5-2.3-1.3-3.1
					c-0.2-0.2-0.4-0.3-0.6-0.5c-12.3-8.5-35.4-13.4-48.3-12.2c-0.5,0.1-0.9,0.4-1.1,0.8c-0.1,0.2-0.2,0.4-0.3,0.6s-0.1,0.4-0.1,0.6
					s0.1,0.4,0.1,0.5s0.1,0.2,0.1,0.3c0.1,0.1,0.1,0.2,0.2,0.3c7.2,7,15.7,12.3,25.1,15.6c6.1,2.2,12.4,3.4,18.9,2.3
					C103.2,328.9,104.7,328.5,106.1,328z"/>
				<path id="Path_879" class="st1" d="M39.5,263c0.4,0,0.8-0.1,1.2-0.2c0.6-0.2,1.2-0.6,1.6-1.1c0.2-0.2,0.4-0.5,0.5-0.8
					c0.3-0.6,0.5-1.3,0.5-2c0-0.1,0-0.3,0-0.4c0-0.3-0.1-0.6-0.3-0.9c-7.6-15.3-20-25.2-34.1-33.8c-0.1-0.1-0.3-0.2-0.5-0.2
					c-0.1,0-0.2,0-0.3,0s-0.2,0-0.3,0.1c-0.5,0.1-0.9,0.4-1.1,0.8c-0.1,0.1-0.1,0.3-0.1,0.4c0,0.1,0,0.1,0,0.2c0,0.1,0,0.1,0,0.2
					v0.1c3.8,13.8,10.8,25.5,22.8,33.9C32.4,261.3,35.9,262.6,39.5,263z"/>
				<path id="Path_880" class="st1" d="M31.5,217.5c0.2,0.3,0.5,0.5,0.8,0.8c0.1,0.1,0.3,0.2,0.4,0.3c0.6,0.3,1.3,0.5,2,0.5
					c0.5,0,0.9-0.1,1.4-0.3c0.6-0.2,1.2-0.6,1.7-1.1v-0.1c7-9.4,9.2-29.9,7.6-42c0-0.2-0.1-0.5-0.2-0.7c-0.1-0.1-0.2-0.3-0.3-0.4
					c-0.3-0.2-0.6-0.4-0.9-0.4c-0.1,0-0.2,0-0.3,0s-0.2,0-0.3,0c-0.2,0.1-0.3,0.1-0.4,0.2c-13.4,11.2-16.7,31.7-12,42.5
					C31.2,217,31.3,217.3,31.5,217.5z"/>
				<path id="Path_881" class="st1" d="M66.7,297.6c0.2,0,0.4-0.1,0.7-0.2c0.6-0.2,1.2-0.6,1.6-1.1c0.2-0.2,0.4-0.5,0.5-0.8
					c0.2-0.3,0.3-0.6,0.4-0.9c0.1-0.4,0.1-0.7,0.1-1.1c0-0.1,0-0.3,0-0.4c0-0.5-0.2-0.9-0.4-1.3c-0.1-0.2-0.3-0.5-0.4-0.7
					c-9.5-10.5-31.3-22.1-43.3-22.8c-0.1,0-0.1,0-0.2,0s-0.2,0-0.3,0c-0.5,0.1-0.8,0.4-1.1,0.8c-0.1,0.1-0.1,0.3-0.2,0.4
					c0,0.1,0,0.1,0,0.2s0,0.1,0,0.2v0.2c0,0.1,0,0.3,0.1,0.4c0,0.1,0.1,0.2,0.1,0.2c6.4,11.9,24.1,26.8,38,27.1
					C63.9,297.8,65.3,297.8,66.7,297.6z"/>
				<path id="Path_882" class="st1" d="M49.3,258.9c0.1,0.2,0.2,0.4,0.4,0.6c0.2,0.3,0.5,0.5,0.8,0.7c0.1,0.1,0.3,0.2,0.4,0.3
					c0.4,0.2,0.9,0.4,1.3,0.4c0.2,0,0.4,0,0.6,0c0.5,0,0.9-0.1,1.4-0.2c0.6-0.2,1.2-0.6,1.6-1.1c0.2-0.2,0.4-0.5,0.5-0.8
					c0-0.1,0.1-0.2,0.1-0.2c0.9-2.2,1.6-4.5,2.1-6.8c1.7-9.2,0.5-18.3-1.3-27.3c-0.4-2.1-1-4.2-1.6-6.6l0,0c0-0.2-0.1-0.3-0.2-0.4
					c-0.1-0.1-0.2-0.3-0.3-0.4c-0.1-0.1-0.2-0.1-0.3-0.2c-0.2-0.1-0.4-0.2-0.7-0.2c-0.1,0-0.2,0-0.3,0s-0.2,0-0.3,0.1
					c-0.3,0.1-0.7,0.3-0.9,0.6c-0.1,0.1-0.2,0.2-0.3,0.4c-6.8,9.6-9.5,20.2-7.1,31.7C46.3,252.7,47.6,255.9,49.3,258.9z"/>
				<path id="Path_883" class="st1" d="M78.3,293.6c0.1,0.1,0.2,0.1,0.3,0.2c0.4,0.2,0.9,0.4,1.3,0.4c0.2,0,0.4,0,0.6,0
					c0.1,0,0.3,0,0.4,0c0.3,0,0.6-0.1,0.9-0.2c0.6-0.2,1.2-0.6,1.6-1.1c0.2-0.2,0.4-0.5,0.5-0.8c0.1-0.2,0.2-0.5,0.3-0.7
					c2.3-11.2-3.7-30-10.7-41c-0.1-0.1-0.1-0.2-0.2-0.3s-0.2-0.1-0.3-0.2c-0.2-0.1-0.4-0.2-0.7-0.2h-0.1h-0.3c-0.1,0-0.2,0-0.3,0.1
					c-0.4,0.1-0.7,0.4-1,0.7C64.1,262.9,66.6,283.4,78.3,293.6z"/>
				<path id="Path_884" class="st1" d="M112.8,318.7c0.6,0.3,1.3,0.5,2,0.5c0.1,0,0.2,0,0.3,0c0.4,0,0.8-0.1,1.2-0.3
					c0.7-0.3,1.3-0.7,1.8-1.2c0.2-0.3,0.4-0.6,0.6-0.9c0.4-0.7,0.6-1.4,0.6-2.2c-1.4-14.9-10.1-26.3-19.5-37.7
					c-0.2-0.2-0.4-0.4-0.6-0.5s-0.4-0.2-0.7-0.2h-0.2c-0.1,0-0.1,0-0.2,0s-0.2,0-0.3,0.1c-0.5,0.1-0.9,0.4-1.1,0.8
					c-0.1,0.2-0.2,0.3-0.2,0.5C92.6,290.9,101.3,311.8,112.8,318.7z"/>
				<path id="Path_885" class="st1" d="M150.3,339c-0.3-0.2-0.7-0.4-1.1-0.6c-14-4.8-37.4-3.4-49.5,1.2c-0.3,0.1-0.6,0.3-0.9,0.6
					c-0.1,0.2-0.2,0.4-0.3,0.6c0,0.1,0,0.2,0,0.2c0,0.1,0,0.3,0,0.4c0,0.2,0,0.4,0.1,0.5c0,0.1,0.1,0.2,0.1,0.3
					c0.1,0.1,0.2,0.3,0.3,0.4c0.1,0.1,0.2,0.2,0.3,0.2c8.8,4.8,18.4,7.6,28.4,8.3c6.5,0.5,12.9,0,18.9-2.8c1.4-0.6,2.7-1.4,3.9-2.2
					c0.1-0.1,0.3-0.3,0.5-0.4c0.2-0.3,0.4-0.6,0.6-0.9c0.4-0.7,0.6-1.5,0.6-2.2c0-1.2-0.5-2.3-1.3-3.1
					C150.7,339.3,150.5,339.1,150.3,339z"/>
				<path id="Path_886" class="st1" d="M240.8,336.7c14-1.2,29.3-23.8,27.1-39.4v-0.1c-0.1-0.2-0.2-0.4-0.3-0.6
					c-0.3-0.4-0.7-0.7-1.1-0.8c-0.1,0-0.2,0-0.3,0c-0.1,0-0.1,0-0.2,0h-0.2c-0.2,0-0.5,0.1-0.7,0.2c-0.1,0.1-0.3,0.2-0.4,0.2
					c-11.7,10.5-22.9,21-25.8,37.2c-8.9,2.3-24.9,6.7-40.7,12.4c-15.8-5.7-31.8-10.1-40.7-12.4c-2.9-16.2-14.1-26.7-25.8-37.2
					c-0.1-0.1-0.2-0.2-0.3-0.2c-0.2-0.1-0.4-0.2-0.7-0.2h-0.2c-0.1,0-0.1,0-0.2,0c-0.1,0-0.2,0-0.3,0c-0.5,0.1-0.9,0.4-1.1,0.8
					c-0.1,0.2-0.2,0.4-0.3,0.6v0.1c-2.2,15.7,13.1,38.2,27.1,39.4c9.6,2,22.6,6.4,35.3,11.8c-13.8,5.4-26.6,11.8-33.4,18.5l5,5.9
					c6.2-6.2,20.2-14.1,35.6-21.1c15.3,7,29.4,15,35.6,21.1l5-5.9c-6.7-6.7-19.5-13-33.4-18.5C218.2,343.1,231.1,338.7,240.8,336.7z
					"/>
				<path id="Path_887" class="st1" d="M265.6,2.1c6.2,7.9,21.5,18.1,31.3,19.6c0.3,0,0.7,0,1-0.1c1.8-0.4,3-2.3,2.5-4.1l0,0
					c-0.1-0.2-0.2-0.4-0.3-0.6C295.7,8.4,279.8,0,266.3,0c-0.7,0.2-1.1,0.9-1,1.6l0,0C265.4,1.8,265.5,1.9,265.6,2.1z"/>
				<path id="Path_888" class="st1" d="M357.3,79.9h0.1c1.8,0.6,3.8-0.3,4.4-2.2v-0.1c0.4-1.6,0.6-3.2,0.6-4.8
					c0-11.4-4.7-21-11.7-29.6c-1.4-1.8-3.4-3.9-5.2-5.7c-0.2-0.2-0.5-0.3-0.7-0.4c-0.1,0-0.1,0-0.2,0c-0.7,0-1.3,0.6-1.3,1.3
					c0.9,14.3,3.8,28.7,13,40.7C356.6,79.5,356.9,79.8,357.3,79.9z"/>
				<path id="Path_889" class="st1" d="M378.6,169.2c0.2,1.3,1,2.4,2.2,2.8h0.1c0.4,0.1,0.8,0.2,1.2,0.2c0.7,0,1.4-0.2,1.9-0.6
					c2.7-2.2,4.9-5,6.4-8.2c5.9-13,5.9-26.3,2.7-39.9c-0.1-0.2-0.1-0.3-0.3-0.4c-0.2-0.2-0.5-0.3-0.8-0.4c-0.1,0-0.2,0-0.2,0
					c-0.3,0-0.7,0.1-0.9,0.4C383.8,130.3,377.1,156.3,378.6,169.2z"/>
				<path id="Path_890" class="st1" d="M349.1,86.7c1.6,0,3.1-1.1,3.5-2.7c0.1-0.3,0.1-0.6,0.1-0.9s-0.1-0.7-0.2-1
					c-3.8-10.3-19.3-21.7-33.5-21.4c-0.7,0.1-1.1,0.7-1.1,1.4v0.1c0,0.2,0.1,0.3,0.1,0.4c5,9.6,20.2,21.3,30.3,24
					C348.5,86.7,348.8,86.7,349.1,86.7z"/>
				<path id="Path_891" class="st1" d="M330.6,41.6c0.4,0.2,0.8,0.3,1.2,0.3h0.1c0.4,0,0.8,0,1.1-0.2c1.4-0.5,2.3-1.7,2.3-3.2
					c-0.1-1.5-0.4-3-0.9-4.5c-3.3-10.3-10.3-17.5-19.2-23.3c-1.8-1.2-4.2-2.5-6.3-3.6c-0.2-0.1-0.5-0.2-0.8-0.1
					c-0.1,0-0.1,0-0.2,0.1c-0.6,0.2-1,0.9-0.8,1.5C312.1,21.4,318.8,33.4,330.6,41.6z"/>
				<path id="Path_892" class="st1" d="M323.3,51c1.5-0.2,2.8-1.3,3-2.8c0.1-0.3,0.1-0.6,0-0.9c0-0.3-0.1-0.6-0.2-0.9
					c-4.5-9.4-20.1-18.8-33.5-17.3c-0.6,0.2-1,0.8-0.9,1.4v0.1c0,0.1,0.1,0.3,0.2,0.4c5.6,8.6,20.9,18.3,30.6,20
					C322.8,51,323,51,323.3,51z"/>
				<path id="Path_893" class="st1" d="M338.8,97.3c0,0.1,0,0.2,0,0.3v0.1c0,0.1,0,0.2,0.1,0.3c4.1,11,15.2,26.7,25.4,31.5
					c0.4,0.1,0.7,0.2,1.1,0.2c1.3,0,2.5-0.6,3.2-1.8c0.1-0.2,0.3-0.5,0.3-0.8c0.1-0.3,0.1-0.6,0.2-0.9c0-0.1,0-0.2,0-0.4
					c-2-12.8-17.5-29.3-29-29.6C339.5,96.4,339,96.8,338.8,97.3z"/>
				<path id="Path_894" class="st1" d="M373.7,122.6c0.4,0.6,0.9,1,1.5,1.3h0.1c0.4,0.2,0.8,0.2,1.2,0.3c1.2,0.1,2.4-0.5,3.1-1.5
					c1.2-2,2.1-4.2,2.6-6.5c2.5-11.3,0-22-4.9-32.2c-1-2.1-2.3-4.2-3.6-6.5c0-0.1-0.1-0.1-0.1-0.2c-0.2-0.2-0.5-0.4-0.8-0.4
					c-0.1,0-0.2,0-0.2,0c-0.6,0-1.2,0.4-1.4,1c-4.1,12.2-2.7,33.7,2.4,44.5C373.6,122.4,373.7,122.5,373.7,122.6z"/>
				<path id="Path_895" class="st1" d="M368.5,173.2c1.9,0.7,3.9-0.3,4.6-2.2v-0.1c2.4-13.3-8.8-33.4-21.6-37.2l0,0
					c-0.7,0-1.3,0.6-1.4,1.3c0.9,10.4,8.1,30,17.3,37.6c0.3,0.2,0.6,0.4,0.9,0.6L368.5,173.2z"/>
				<path id="Path_896" class="st1" d="M395,172.8c-0.1,0-0.2,0-0.3,0c-0.3,0.1-0.6,0.2-0.9,0.4c-8.7,8.3-20.5,28.8-21.9,42.7
					c0,0.4,0,0.7,0.1,1.1c0.1,0.3,0.2,0.6,0.4,0.9c0.2,0.3,0.3,0.5,0.6,0.8c0.5,0.5,1,0.9,1.7,1.1c0.4,0.2,0.9,0.2,1.4,0.2
					c0.6,0,1.2-0.1,1.7-0.4c1.5-0.8,2.8-1.8,4-3c3.1-3,5.8-6.5,7.9-10.3c5.1-10,7.5-21.1,6.9-32.3c0-0.1-0.1-0.3-0.2-0.4
					c-0.2-0.4-0.6-0.7-1-0.8C395.2,172.8,395.1,172.8,395,172.8z"/>
				<path id="Path_897" class="st1" d="M339.1,308.8c-0.3-0.4-0.7-0.7-1.1-0.8c-12.9-1.3-36,3.7-48.3,12.2c-0.2,0.2-0.4,0.3-0.6,0.5
					c-0.8,0.8-1.3,2-1.3,3.1c0,0.8,0.2,1.6,0.6,2.2c0.2,0.3,0.4,0.6,0.6,0.9c0.4,0.4,0.9,0.8,1.5,1.1c1.4,0.5,2.9,0.9,4.4,1.1
					c6.5,1.1,12.8-0.1,18.9-2.3c9.4-3.4,18-8.7,25.2-15.6c0.1-0.1,0.1-0.2,0.2-0.3c0.1-0.1,0.1-0.2,0.2-0.3c0.1-0.2,0.1-0.4,0.1-0.5
					c0-0.2,0-0.4-0.1-0.6C339.3,309.2,339.2,309,339.1,308.8z"/>
				<path id="Path_898" class="st1" d="M389.9,224.8c0-0.1-0.1-0.3-0.1-0.4c-0.2-0.4-0.6-0.7-1.1-0.8c-0.1,0-0.2,0-0.3-0.1
					c-0.1,0-0.2,0-0.3,0c-0.2,0-0.4,0.1-0.5,0.2c-14.1,8.6-26.5,18.6-34.2,33.8c-0.1,0.3-0.2,0.6-0.3,0.9c0,0.1,0,0.3,0,0.4
					c0,0.4,0,0.7,0.1,1.1c0.2,0.6,0.5,1.2,0.9,1.7s1,0.9,1.7,1.1c0.4,0.1,0.8,0.2,1.2,0.2c3.7-0.4,7.2-1.7,10.2-3.8
					c12-8.4,18.9-20.2,22.8-33.9v-0.1c0-0.1,0-0.1,0-0.2C389.9,224.9,389.9,224.8,389.9,224.8z"/>
				<path id="Path_899" class="st1" d="M358.8,217.6c0.4,0.5,1,0.9,1.7,1.1c0.4,0.2,0.9,0.2,1.4,0.3c0.7,0,1.4-0.2,2-0.5
					c0.1-0.1,0.3-0.2,0.4-0.3c0.3-0.2,0.6-0.5,0.8-0.8c0.2-0.2,0.3-0.5,0.5-0.7c4.7-10.8,1.4-31.3-11.8-42.4
					c-0.1-0.1-0.3-0.2-0.4-0.2s-0.2,0-0.3,0c-0.1,0-0.2,0-0.3,0c-0.5,0.1-1,0.4-1.2,0.8c-0.1,0.2-0.2,0.5-0.2,0.7
					C349.6,187.7,351.8,208.2,358.8,217.6L358.8,217.6z"/>
				<path id="Path_900" class="st1" d="M372.2,269.6c0-0.1-0.1-0.3-0.2-0.4c-0.2-0.4-0.6-0.7-1.1-0.8c-0.1,0-0.2,0-0.3,0
					c-0.1,0-0.1,0-0.2,0c-12,0.7-33.8,12.2-43.3,22.8c-0.2,0.2-0.3,0.4-0.4,0.7c-0.2,0.4-0.3,0.9-0.4,1.3c0,0.1,0,0.3,0,0.4
					c0,0.4,0.1,0.7,0.2,1.1c0.1,0.3,0.2,0.6,0.4,0.9c0.1,0.3,0.3,0.5,0.5,0.8c0.4,0.5,1,0.9,1.6,1.1c0.2,0.1,0.4,0.1,0.7,0.2
					c1.4,0.2,2.8,0.3,4.3,0.2c13.9-0.3,31.6-15.2,38-27.1c0-0.1,0.1-0.2,0.1-0.2c0-0.1,0.1-0.2,0.1-0.4V270c0-0.1,0-0.1,0-0.2
					C372.3,269.7,372.3,269.7,372.2,269.6z"/>
				<path id="Path_901" class="st1" d="M339.9,258.6c0,0.1,0.1,0.2,0.1,0.2c0.2,0.3,0.3,0.5,0.5,0.8c0.4,0.5,1,0.9,1.6,1.1
					c0.4,0.2,0.9,0.2,1.4,0.2c0.2,0,0.4,0,0.6,0c0.5-0.1,0.9-0.2,1.3-0.4c0.2-0.1,0.3-0.2,0.4-0.3c0.3-0.2,0.6-0.5,0.8-0.7
					c0.2-0.2,0.3-0.4,0.4-0.6c1.7-3,3-6.2,3.9-9.6c2.4-11.5-0.3-22.1-7.1-31.7c-0.1-0.1-0.2-0.2-0.3-0.4c-0.2-0.3-0.5-0.5-0.9-0.6
					c-0.1,0-0.2,0-0.3-0.1c-0.1,0-0.2,0-0.3,0c-0.2,0-0.5,0.1-0.7,0.2c-0.1,0.1-0.2,0.1-0.3,0.2c-0.1,0.1-0.2,0.2-0.3,0.4
					c-0.1,0.1-0.2,0.3-0.2,0.4c-0.6,2.4-1.1,4.5-1.6,6.6c-1.9,9-3,18.2-1.3,27.3C338.3,254.1,339,256.4,339.9,258.6z"/>
				<path id="Path_902" class="st1" d="M324.6,249.8c-0.1,0-0.2,0-0.3-0.1H324h-0.1c-0.2,0-0.5,0.1-0.7,0.2
					c-0.2,0.1-0.4,0.3-0.5,0.5c-7,11-13,29.8-10.7,41c0.1,0.2,0.2,0.5,0.3,0.7c0.2,0.3,0.3,0.5,0.6,0.8c0.5,0.5,1,0.9,1.7,1.1
					c0.3,0.1,0.6,0.2,0.9,0.2c0.1,0,0.3,0,0.4,0c0.2,0,0.4,0,0.6,0c0.5-0.1,0.9-0.2,1.3-0.4c0.1-0.1,0.2-0.1,0.3-0.2
					c11.8-10.3,14.2-30.7,7.4-43.1C325.3,250.2,325,250,324.6,249.8z"/>
				<path id="Path_903" class="st1" d="M298.5,276.2c-0.1,0-0.2,0-0.3-0.1c-0.1,0-0.1,0-0.2,0h-0.2c-0.2,0-0.5,0.1-0.7,0.2
					s-0.4,0.3-0.6,0.5c-9.3,11.4-18.1,22.8-19.5,37.7c0,0.8,0.2,1.5,0.6,2.2c0.2,0.3,0.4,0.6,0.6,0.9c0.5,0.6,1.1,1,1.8,1.2
					c0.4,0.1,0.8,0.2,1.2,0.3c0.1,0,0.2,0,0.3,0c0.7,0,1.4-0.2,2-0.5c11.5-6.9,20.2-27.7,16.2-41.2c-0.1-0.2-0.1-0.3-0.2-0.5
					C299.4,276.6,299,276.3,298.5,276.2z"/>
				<path id="Path_904" class="st1" d="M298,340.9c-0.1-0.2-0.2-0.4-0.3-0.6c-0.2-0.3-0.5-0.5-0.9-0.6c-12.1-4.6-35.5-6-49.5-1.2
					c-0.4,0.1-0.8,0.3-1.1,0.6c-0.2,0.2-0.4,0.3-0.6,0.5c-0.8,0.8-1.3,2-1.3,3.1c0,0.8,0.2,1.6,0.6,2.2c0.2,0.3,0.4,0.6,0.6,0.9
					c0.2,0.2,0.3,0.3,0.5,0.4c1.2,0.8,2.5,1.6,3.9,2.2c6,2.8,12.4,3.3,18.9,2.8c9.9-0.7,19.6-3.5,28.4-8.3c0.1-0.1,0.2-0.2,0.3-0.2
					c0.2-0.2,0.3-0.4,0.4-0.7c0.1-0.2,0.1-0.4,0.1-0.5s0-0.3,0-0.4C298,341,298,341,298,340.9z"/>
			</g>
		</g>
		<g id="Group_278" transform="translate(88.807 64.366)">
			<g id="Group_275" transform="translate(116.285 89.899)">
				<path id="Path_905" class="st0" d="M13.6,0H9.3v9.2c0.2,3-1.6,5.8-4.3,6.9c-1.6,0.7-3.3,1.1-5,1.1v2.1v2.2l0,0v3.1
					c2.2,0,4.4-0.3,6.5-1.1v40.2h4.3v-43l0,0c2-2.3,3-5.3,2.8-8.4V0z"/>
				<rect id="Rectangle_80" x="18" y="3.5" class="st0" width="25.7" height="7.4"/>
				<rect id="Rectangle_81" x="18" y="54.3" class="st0" width="25.7" height="7.4"/>
			</g>
			<g id="Group_276">
				<rect id="Rectangle_82" x="63.9" y="124.7" class="st0" width="4.5" height="7.3"/>
				<rect id="Rectangle_83" x="63.9" y="110.6" class="st0" width="4.5" height="7.3"/>
				<rect id="Rectangle_84" x="93.5" y="124.7" class="st0" width="4.4" height="7.3"/>
				<rect id="Rectangle_85" x="85.8" y="110.6" class="st0" width="4.4" height="7.3"/>
				<rect id="Rectangle_86" x="71.7" y="124.7" class="st0" width="4.4" height="7.3"/>
				<path id="Path_906" class="st0" d="M184.2,18c-1.6,0-3.3,0.1-4.9,0.4c-3.7,0.5-7.4,0.7-11.1,0.7c-13.7,0-27.2-3.3-39.4-9.8
					c-1.8-1-3.5-2-5.2-3c-0.8-0.5-1.7-1.1-2.5-1.6c-0.7-0.5-2.2-1.5-2.2-1.5c-5.8-4.2-13.6-4.2-19.5,0c0,0-1.4,1-2.1,1.5
					c-0.8,0.5-1.7,1.1-2.5,1.6c-1.7,1.1-3.4,2.1-5.2,3c-12.1,6.5-25.6,9.8-39.4,9.8c-3.7,0-7.4-0.2-11.1-0.7
					c-18.6-2.7-36,10.3-38.7,29C0.2,49,0,50.7,0.1,52.3v70.6c0,1.3-0.1,2.7-0.1,4c0,62.3,43.9,116,104.9,128.4
					c1.4,0.2,2.9,0.3,4.3,0.3s2.8-0.1,4.2-0.3c60.8-12.3,104.7-65.6,105.1-127.7v-0.4v-75C218.6,33.4,203.2,18,184.2,18L184.2,18z
					 M101.2,89.9V100h-7.7v3.9h7.7V154h-3.3v-15.1h-4.4v15.3h-3.3v-15.3h-4.4V154h-3.3v-50.1h7.7V100h-7.7v-6.8h7.7v-3.3h3.3v3.3
					h4.4v-3.3L101.2,89.9z M86.1,49.3L86.1,49.3l3.1-6.2l3,6.1v0.1l6.8,1L94.3,55l0,0l1.2,6.8l-6.1-3.2l-6.1,3.2l1.1-6.7V55
					l-4.9-4.8L86.1,49.3z M54.6,69L54.6,69l3.1-6.2l3,6.1V69l6.8,1l-4.9,4.8l-0.1,0.1l1.2,6.8l-6.1-3.2l-6.1,3.2l1.2-6.8v-0.1
					L47.8,70L54.6,69z M35.8,101.7L35.8,101.7l3.1-6.2l3,6.1l0,0l6.9,1l-4.9,4.7v0.1l1.2,6.8l-6-3.2H39l-6.1,3.2l1.2-6.7v-0.1
					l-4.9-4.8L35.8,101.7z M39.9,148.9L39.9,148.9l-6.2,3.2l1.1-6.7v-0.1l-4.9-4.8l6.7-1h0.1l3.1-6.2l3,6.1v0.1l6.8,1l-4.9,4.8
					l-0.1,0.1L46,152L39.9,148.9z M65.7,183.7l-6-3.2h-0.1l-6.1,3.2l1.2-6.7v-0.1l-5-4.8l6.8-1h0.1l3.1-6.2l3,6.1v0.1l6.8,1
					l-4.9,4.8h-0.1L65.7,183.7z M79.4,99.9h-7.7v3.9h7.7v35h-7.7v3.9h7.7v6.8h-7.7v4.6h-3.3v-4.6h-7.8v-6.8h7.8v-3.9h-7.8v-35h7.8
					v-3.9h-7.8v-6.8h7.8v-3.3h3.3v3.3h7.7V99.9z M97.7,202.5l-6.1-3.2l-6.1,3.2l1.1-6.7v-0.1l-4.9-4.8l6.8-1h0.1l3-6.2l3,6.1v0.1
					l6.8,1l-4.9,4.8l-0.1,0.1L97.7,202.5z M210.9,127c0,58-40.8,107.9-97.7,119.5c-1.3,0.2-2.6,0.3-3.9,0.3V9.1
					c3.3,0.1,6.5,1.3,9.1,3.3l0,0c0.7,0.5,1.3,1,2,1.4c0.8,0.5,1.5,1,2.3,1.5c1.6,1,3.2,1.9,4.8,2.8c10.9,5.8,24.8,8.8,38,8.8
					c3.6-0.1,7.1-0.4,10.6-0.9c1.9-0.2,3.9-0.3,5.8-0.3c17.2,0,28.7,13.2,29.3,30.3l0,0C211.4,55.8,210.9,126.4,210.9,127L210.9,127
					z"/>
				<rect id="Rectangle_87" x="85.8" y="124.7" class="st0" width="4.4" height="7.3"/>
				<rect id="Rectangle_88" x="93.5" y="110.6" class="st0" width="4.4" height="7.3"/>
				<rect id="Rectangle_89" x="71.7" y="110.6" class="st0" width="4.4" height="7.3"/>
			</g>
			<g id="Group_277" transform="translate(117.373 43.392)">
				<path id="Path_907" class="st0" d="M19.1,6.9l-6.6-1l-0.1-0.1L9.6,0l-3,6L0,6.9l4.8,4.7l-1.1,6.6l5.9-3.1l5.9,3.1l-1.1-6.6
					L19.1,6.9z"/>
				<path id="Path_908" class="st0" d="M47.4,30l4.7-4.6l-6.6-1l-2.9-6l-3,6l-6.6,1l4.8,4.7v0.1l-1.1,6.4l5.9-3.1l5.9,3.1L47.4,30
					L47.4,30z"/>
				<path id="Path_909" class="st0" d="M66.2,61l4.7-4.6l-6.6-1l-0.1-0.1l-2.9-5.8l-3,6l-6.6,1l4.8,4.7l-1.1,6.6l5.9-3.1l5.9,3.1
					l-1.1-6.6L66.2,61z"/>
				<path id="Path_910" class="st0" d="M71.8,94l-6.6-1h-0.1l-2.9-5.9l-3,6l-6.6,1l4.8,4.7l-1.1,6.6l5.9-3.1l5.9,3.1L67,98.7
					L71.8,94z"/>
				<path id="Path_911" class="st0" d="M54,127l-6.6-1l-0.1-0.1l-2.9-5.9l-3,6l-6.6,1l4.8,4.7l-1.1,6.6l5.9-3.1l5.9,3.1l-1.1-6.6
					L54,127z"/>
				<path id="Path_912" class="st0" d="M17.6,151.3l4.7-4.6l-6.6-0.9l-2.9-6l-3,6H9.7l-6.4,0.9l4.8,4.7v0.2L6.8,158l5.9-3.1l5.9,3.1
					L17.6,151.3L17.6,151.3z"/>
			</g>
		</g>
	</g>
</g>
</svg>
